<?xml version="1.0" encoding="UTF-8"?>
<svg version="1.1" xmlns="http://www.w3.org/2000/svg" width="986" height="253">
<path d="M0 0 C7.26 0 14.52 0 22 0 C25.5339886 6.75615467 28.52221036 13.60243136 31.27734375 20.703125 C32.9149205 24.8592989 34.68906381 28.95413852 36.45698547 33.05619812 C40.09706975 41.52307186 43.60183555 50.04650258 47.125 58.5625 C47.87583005 60.37575939 48.62672599 62.1889915 49.37768555 64.00219727 C50.87807325 67.6252943 52.37795905 71.24859849 53.87744141 74.87207031 C55.51032944 78.81762568 57.14463315 82.76259117 58.7800293 86.70710754 C59.8733219 89.34412291 60.96610825 91.98134785 62.05877686 94.61862183 C62.78708395 96.3761662 63.51584817 98.13352112 64.24462891 99.89086914 C65.1050639 101.96907569 65.9633156 104.04818823 66.81884766 106.12841797 C67.60989511 108.05158874 68.4065011 109.97248202 69.20849609 111.89111328 C69.57668457 112.78427246 69.94487305 113.67743164 70.32421875 114.59765625 C70.64865967 115.37761963 70.97310059 116.15758301 71.30737305 116.96118164 C72 119 72 119 72 122 C64.08 122 56.16 122 48 122 C39 102.5 39 102.5 39 99 C11.775 99.495 11.775 99.495 -16 100 C-20.78456023 110.89284637 -20.78456023 110.89284637 -25 122 C-33.25 122 -41.5 122 -50 122 C-46.62983425 111.88950276 -46.62983425 111.88950276 -44.8125 107.625 C-44.38324219 106.61050781 -43.95398438 105.59601563 -43.51171875 104.55078125 C-43.01285156 103.37902344 -42.51398437 102.20726562 -42 101 C-40.70587679 97.93853469 -39.41524528 94.87560139 -38.125 91.8125 C-37.78339844 91.00167969 -37.44179688 90.19085938 -37.08984375 89.35546875 C-34.81543718 83.95161555 -32.55264341 78.54315189 -30.3125 73.125 C-30.05162598 72.49698486 -29.79075195 71.86896973 -29.52197266 71.22192383 C-27.84430419 67.15109527 -26.25326794 63.05271174 -24.6875 58.9375 C-21.84371205 51.51636381 -18.7784323 44.1952307 -15.6875 36.875 C-15.11343586 35.51154656 -14.53954432 34.14802043 -13.96582031 32.78442383 C-12.83486337 30.09721589 -11.70283686 27.4104629 -10.56982422 24.72412109 C-9.17992472 21.42815806 -7.79418707 18.13046364 -6.41015625 14.83203125 C-5.69014035 13.11717231 -4.97009147 11.40232721 -4.25 9.6875 C-3.92733154 8.91841309 -3.60466309 8.14932617 -3.2722168 7.35693359 C-1.11490981 2.22981962 -1.11490981 2.22981962 0 0 Z M10 33 C3.67366793 48.22330629 -2.20892357 63.55712952 -8 79 C4.54 79 17.08 79 30 79 C27.99530024 72.31766748 25.94929135 66.14742997 23.1875 59.8125 C22.48062794 58.16455227 21.77491413 56.51610726 21.0703125 54.8671875 C20.54872559 53.64854004 20.54872559 53.64854004 20.01660156 52.40527344 C17.97374955 47.57189735 16.05677281 42.68867014 14.12890625 37.80859375 C13.08662864 35.10544586 13.08662864 35.10544586 12 33 C11.34 33 10.68 33 10 33 Z " fill="#C4A94C" transform="translate(590,62)"/>
<path d="M0 0 C69.93442623 0 69.93442623 0 82.3984375 11.14453125 C91.44257088 20.7434163 94.51827224 32.06303057 94.3125 45.078125 C93.37243763 56.87590773 88.78332553 66.7823275 80.125 74.8125 C67.93824915 84.74585164 53.77129258 84.2945033 38.75 84.125 C33.5525 84.08375 28.355 84.0425 23 84 C23 96.54 23 109.08 23 122 C15.41 122 7.82 122 0 122 C0 81.74 0 41.48 0 0 Z M23 21 C23 34.53 23 48.06 23 62 C28.341875 62.04125 33.68375 62.0825 39.1875 62.125 C41.70346802 62.15231201 41.70346802 62.15231201 44.27026367 62.18017578 C45.61116212 62.18602123 46.95206413 62.19111667 48.29296875 62.1953125 C48.97991821 62.20554443 49.66686768 62.21577637 50.37463379 62.22631836 C56.92490627 62.22868351 61.30073634 60.57876972 66 56 C69.50580985 50.8292236 71.39300222 45.26788164 71 39 C69.56424169 31.79108763 67.11911287 27.15861924 61 23.0234375 C56.60550558 20.77469231 52.5034987 20.88292262 47.609375 20.90234375 C46.31999023 20.90484131 45.03060547 20.90733887 43.70214844 20.90991211 C42.06793945 20.91901611 40.43373047 20.92812012 38.75 20.9375 C33.5525 20.958125 28.355 20.97875 23 21 Z " fill="#C5A84C" transform="translate(58,62)"/>
<path d="M0 0 C1.39941381 0.70339604 2.77928098 1.44864781 4.125 2.25 C5.218125 2.86875 6.31125 3.4875 7.4375 4.125 C10.54211654 6.57981308 12.70929254 9.12379035 15.125 12.25 C15.18558594 11.46753906 15.24617187 10.68507813 15.30859375 9.87890625 C15.43427734 8.36103516 15.43427734 8.36103516 15.5625 6.8125 C15.68431641 5.29849609 15.68431641 5.29849609 15.80859375 3.75390625 C16.125 1.25 16.125 1.25 17.125 0.25 C23.725 0.25 30.325 0.25 37.125 0.25 C37.125 30.94 37.125 61.63 37.125 93.25 C30.195 93.25 23.265 93.25 16.125 93.25 C15.795 89.62 15.465 85.99 15.125 82.25 C13.908125 83.508125 12.69125 84.76625 11.4375 86.0625 C3.56731491 93.86400983 -4.69476192 96.53478892 -15.75 96.6875 C-26.8061654 96.60069861 -36.31734277 93.28790415 -44.875 86.25 C-48.875 81.95731707 -48.875 81.95731707 -48.875 79.25 C-49.535 79.25 -50.195 79.25 -50.875 79.25 C-59.59565656 63.48752986 -62.81280842 47.05268147 -57.875 29.25 C-52.68578614 15.63398695 -44.7877142 6.45102752 -31.44140625 0.30859375 C-22.43349685 -3.40699749 -9.1100192 -3.5684407 0 0 Z M-25.875 23.25 C-26.761875 23.8275 -27.64875 24.405 -28.5625 25 C-35.02487044 31.28771178 -37.47681895 38.31255502 -38.1875 47.125 C-37.86582339 56.25704151 -34.42371744 63.88319137 -27.875 70.25 C-21.44099632 74.59535323 -14.56010409 76.11322542 -6.875 75.25 C1.39592546 72.96150333 7.58055643 69.23788517 11.9375 61.6875 C15.64490879 54.76460397 16.17417092 47.47933221 14.62890625 39.77734375 C11.77429031 30.37485171 6.65170576 25.00834891 -1.875 20.25 C-10.0479019 17.52569937 -18.79603112 18.38426483 -25.875 23.25 Z " fill="#C5A94B" transform="translate(794.875,90.75)"/>
<path d="M0 0 C0.33 24.09 0.66 48.18 1 73 C1.33 72.34 1.66 71.68 2 71 C2.66 71 3.32 71 4 71 C4.2475 70.2884375 4.495 69.576875 4.75 68.84375 C6.14949966 65.65988827 7.8799431 63.25607396 10 60.5 C10.80050781 59.45328125 11.60101563 58.4065625 12.42578125 57.328125 C13.28357835 56.21853672 14.14165591 55.1091652 15 54 C15.86891431 52.87011817 16.73740329 51.73990911 17.60546875 50.609375 C22.16293415 44.67581392 22.16293415 44.67581392 23.76464844 42.68359375 C25.0756379 40.97720192 25.0756379 40.97720192 26.16503906 38.84765625 C27.59897968 36.41286602 28.78222974 34.76557729 31 33 C35.49533954 32.01919864 39.80166743 32.24234746 44.375 32.5 C45.58800781 32.53609375 46.80101562 32.5721875 48.05078125 32.609375 C51.03710076 32.70343231 54.01691402 32.83473208 57 33 C56.46499004 36.68478692 55.66960854 38.86636751 53.26953125 41.70703125 C52.71330078 42.37669922 52.15707031 43.04636719 51.58398438 43.73632812 C50.99939453 44.42146484 50.41480469 45.10660156 49.8125 45.8125 C48.67164838 47.1718956 47.53232113 48.532572 46.39453125 49.89453125 C45.83008301 50.56846924 45.26563477 51.24240723 44.68408203 51.93676758 C42.47519592 54.64295727 40.39552966 57.43504061 38.3190918 60.2434082 C36.29659942 62.93669576 34.10041547 65.48848689 31.90625 68.04296875 C30.72047467 70.01978925 30.72047467 70.01978925 31.74584961 72.26928711 C33.07629898 75.16612888 34.56189477 77.89012159 36.16015625 80.6484375 C36.78486816 81.72931641 37.40958008 82.81019531 38.05322266 83.92382812 C39.04781494 85.6321582 39.04781494 85.6321582 40.0625 87.375 C40.74547475 88.55392363 41.42825384 89.73296063 42.11083984 90.91210938 C46.34429748 98.21349847 50.64199202 105.47134448 55.0703125 112.65625 C57.57547872 116.9971858 59.75859056 121.51718112 62 126 C53.42 126 44.84 126 36 126 C31.25 117.375 31.25 117.375 29.77832031 114.69287109 C27.36024235 110.32203286 24.81034992 106.13462995 22 102 C19.12365604 97.11103009 16.48418236 92.09911115 14 87 C12.95203782 87.84643099 11.91207308 88.70276192 10.875 89.5625 C10.29492188 90.03816406 9.71484375 90.51382813 9.1171875 91.00390625 C8.41851562 91.66261719 7.71984375 92.32132812 7 93 C6.48840332 93.43046631 5.97680664 93.86093262 5.44970703 94.30444336 C0.58141179 98.97455122 0.26453292 103.28213257 0.1171875 109.85742188 C0.12105469 111.62956055 0.12105469 111.62956055 0.125 113.4375 C0.104375 114.64599609 0.08375 115.85449219 0.0625 117.09960938 C0.01559883 120.06610866 0.00425968 123.03313304 0 126 C-7.59 126 -15.18 126 -23 126 C-23 84.42 -23 42.84 -23 0 C-16.14272487 -3.42863757 -7.65798906 -0.36466615 0 0 Z " fill="#C4A94D" transform="translate(440,58)"/>
<path d="M0 0 C0.76570313 0.41894531 1.53140625 0.83789062 2.3203125 1.26953125 C3.20976562 1.74003906 4.09921875 2.21054688 5.015625 2.6953125 C16.06504227 8.92873011 24.19375118 19.28585249 28.0078125 31.46484375 C31.46692992 46.02196289 29.65367165 60.31787275 22.3203125 73.26953125 C21.8253125 74.17703125 21.3303125 75.08453125 20.8203125 76.01953125 C19.20272712 78.44590932 17.51868037 80.35482375 15.3203125 82.26953125 C14.6603125 82.26953125 14.0003125 82.26953125 13.3203125 82.26953125 C12.8253125 83.75453125 12.8253125 83.75453125 12.3203125 85.26953125 C0.39758813 94.17615047 -13.11274492 96.75158106 -27.6796875 95.26953125 C-41.67733728 92.94875303 -52.32524119 85.64984764 -60.6796875 74.26953125 C-68.30205132 62.36829479 -70.54731009 48.04821813 -67.5546875 34.33203125 C-64.25115346 22.30779361 -58.03803589 11.46502517 -47.6796875 4.26953125 C-33.30416064 -2.84659334 -15.38084434 -6.9980369 0 0 Z M-39.1171875 26.64453125 C-45.0679753 34.34357309 -46.49409665 42.74094415 -45.6796875 52.26953125 C-43.96320809 59.4973572 -40.274392 65.39029211 -34.6796875 70.26953125 C-28.42301605 74.1115811 -20.58860322 75.43464912 -13.44140625 73.73828125 C-3.71131562 70.72931205 0.58319621 66.12654998 5.3203125 57.26953125 C6.92440238 54.0613515 6.54650336 50.60280795 6.5703125 47.08203125 C6.5909375 46.33888672 6.6115625 45.59574219 6.6328125 44.83007812 C6.68872713 36.85525449 3.76838716 30.13668858 -1.6796875 24.26953125 C-13.27209253 15.30966442 -28.88321009 15.50533716 -39.1171875 26.64453125 Z " fill="#C4A94C" transform="translate(373.6796875,91.73046875)"/>
<path d="M0 0 C3.92823844 2.21645398 7.63514964 4.57082175 11.25 7.26953125 C12.28125 7.99140625 13.3125 8.71328125 14.375 9.45703125 C23.95179504 17.8101247 28.47879609 31.5108356 29.453125 43.83984375 C29.72461848 58.63623859 24.89051065 71.25564509 14.6875 81.9453125 C4.30909359 91.84138913 -7.4250351 95.94789543 -21.77441406 95.74023438 C-36.69516391 95.06037471 -47.84033426 88.99796677 -58 78.3671875 C-67.20479914 67.33375638 -69.69547289 53.27972043 -68.75 39.26953125 C-67.05591026 28.71815345 -63.19670611 19.06259579 -55.75 11.26953125 C-55.22148437 10.70621094 -54.69296875 10.14289063 -54.1484375 9.5625 C-41.04907569 -3.230281 -16.79115193 -7.61521794 0 0 Z M-32.75 21.26953125 C-34.296875 22.10484375 -34.296875 22.10484375 -35.875 22.95703125 C-41.19895903 27.23934612 -43.92989166 32.7461341 -45.75 39.26953125 C-46.72274755 48.81603045 -46.1384184 57.53417255 -40.171875 65.33203125 C-34.40151752 71.57025556 -27.97509823 73.74702143 -19.625 74.58203125 C-11.75544445 73.94738967 -4.50714723 71.38127211 0.8125 65.37109375 C6.00592363 57.77853421 7.39394667 49.29137866 6.25 40.26953125 C4.21758339 31.16574796 0.11914199 25.66660706 -7.4375 20.39453125 C-15.34823442 16.54606586 -25.17293289 17.02637367 -32.75 21.26953125 Z " fill="#C4A94C" transform="translate(224.75,91.73046875)"/>
<path d="M0 0 C1.67074622 0.87043219 3.3223256 1.7803316 4.9375 2.75 C6.05125 3.3275 7.165 3.905 8.3125 4.5 C14.38822527 9.70776452 17.61374382 15.93983854 18.9375 23.75 C18.9375 25.07 18.9375 26.39 18.9375 27.75 C11.6775 27.75 4.4175 27.75 -3.0625 27.75 C-4.0525 25.44 -5.0425 23.13 -6.0625 20.75 C-9.91740708 17.75093982 -14.24729587 16.64707605 -19.09375 16.921875 C-22.59825557 17.53055228 -25.86959926 18.15354963 -29.0625 19.75 C-30.02320434 22.63211302 -30.16831883 24.44850044 -30.125 27.4375 C-30.11597656 28.24574219 -30.10695313 29.05398437 -30.09765625 29.88671875 C-30.08605469 30.50160156 -30.07445312 31.11648437 -30.0625 31.75 C-22.90306129 34.18518324 -15.9485236 36.4993407 -8.4375 37.5625 C1.0300851 39.07493183 11.37505336 41.93710502 17.51953125 49.765625 C22.1098693 58.10109599 22.66997696 67.63864777 20.0859375 76.75390625 C16.95886714 83.72067866 12.08202314 88.86716954 5.1171875 92.03125 C-8.29301537 97.03772574 -24.24897445 98.33706144 -37.75 92.890625 C-40.7488177 91.41147843 -43.42490933 89.80860735 -46.0625 87.75 C-46.87332031 87.16734375 -47.68414063 86.5846875 -48.51953125 85.984375 C-53.76807389 81.37275228 -57.03950033 73.96063402 -58 67.0625 C-58.020625 65.969375 -58.04125 64.87625 -58.0625 63.75 C-57.0625 62.75 -57.0625 62.75 -55.02124023 62.63647461 C-54.14669189 62.64171143 -53.27214355 62.64694824 -52.37109375 62.65234375 C-51.42685547 62.65556641 -50.48261719 62.65878906 -49.50976562 62.66210938 C-48.51654297 62.67048828 -47.52332031 62.67886719 -46.5 62.6875 C-45.50291016 62.69201172 -44.50582031 62.69652344 -43.47851562 62.70117188 C-41.00645151 62.71299993 -38.53450482 62.72948151 -36.0625 62.75 C-35.80855469 63.36488281 -35.55460938 63.97976562 -35.29296875 64.61328125 C-34.94878906 65.42152344 -34.60460937 66.22976562 -34.25 67.0625 C-33.91355469 67.86300781 -33.57710937 68.66351563 -33.23046875 69.48828125 C-31.59142003 72.6622251 -29.94561754 74.29862881 -26.77734375 75.91796875 C-20.53500436 77.83108859 -13.48668453 77.61284534 -7.375 75.4375 C-4.84173898 73.79276456 -4.84173898 73.79276456 -3.0625 70.75 C-2.84953747 66.845687 -3.03110155 63.50429036 -4.0625 59.75 C-10.61273962 58.03010468 -17.15753394 56.51157331 -23.8125 55.25 C-34.6157539 53.1135767 -44.62338668 49.97774254 -51.15234375 40.59375 C-53.43203542 35.97566215 -53.2747455 30.92466488 -53.3125 25.875 C-53.333125 25.19308594 -53.35375 24.51117188 -53.375 23.80859375 C-53.42624084 17.0832337 -51.36842871 11.3999784 -46.85546875 6.234375 C-34.72211084 -3.81067076 -14.45904487 -5.96664383 0 0 Z " fill="#C5A94C" transform="translate(904.0625,91.25)"/>
<path d="M0 0 C7.59 0 15.18 0 23 0 C23 8.91 23 17.82 23 27 C26.3 26.67 29.6 26.34 33 26 C35.66565177 25.91545507 38.33301343 25.86953486 41 25.875 C42.27875 25.87242188 43.5575 25.86984375 44.875 25.8671875 C48 26 48 26 50 27 C50 33.27 50 39.54 50 46 C41.09 46 32.18 46 23 46 C23.09691212 52.62062768 23.19963007 59.24062596 23.31738281 65.86083984 C23.35567157 68.11306236 23.39052461 70.365346 23.421875 72.61767578 C23.46752737 75.85471447 23.52552215 79.09133236 23.5859375 82.328125 C23.60326431 83.83925873 23.60326431 83.83925873 23.62094116 85.38092041 C23.64081085 86.32159363 23.66068054 87.26226685 23.68115234 88.23144531 C23.69447601 89.05751282 23.70779968 89.88358032 23.7215271 90.73468018 C24.02911968 93.23688258 24.68328077 94.85998698 26 97 C28.88315697 98.9316073 31.33932566 99.28228176 34.765625 99.4140625 C35.65507813 99.45273438 36.54453125 99.49140625 37.4609375 99.53125 C38.38132812 99.5621875 39.30171875 99.593125 40.25 99.625 C41.18585937 99.66367188 42.12171875 99.70234375 43.0859375 99.7421875 C45.39030796 99.83624344 47.6951266 99.91920186 50 100 C50 106.27 50 112.54 50 119 C45.74816999 119.11560867 41.5019132 119.21486299 37.24975586 119.2746582 C35.8075094 119.29961056 34.36538686 119.33358606 32.92358398 119.37719727 C23.20035835 119.66367012 15.61522686 119.25061146 8.16894531 112.2878418 C2.08882208 105.98562677 -0.13622753 97.63023337 -0.11352539 89.02612305 C-0.11344986 88.06550461 -0.11337433 87.10488617 -0.11329651 86.11515808 C-0.10813522 85.0910231 -0.10297394 84.06688812 -0.09765625 83.01171875 C-0.0962413 81.95338333 -0.09482635 80.89504791 -0.09336853 79.80464172 C-0.08778159 76.43223211 -0.07523144 73.05988946 -0.0625 69.6875 C-0.05748331 67.39778742 -0.0529207 65.10807379 -0.04882812 62.81835938 C-0.03781643 57.21221388 -0.02056072 51.60611828 0 46 C-6.27 46 -12.54 46 -19 46 C-19 39.73 -19 33.46 -19 27 C-15.23508833 25.74502944 -11.72793525 25.89338352 -7.8125 25.9375 C-5.234375 25.958125 -2.65625 25.97875 0 26 C0 17.42 0 8.84 0 0 Z " fill="#C5A94B" transform="translate(679,65)"/>
<path d="M0 0 C1.37466431 0.07069702 1.37466431 0.07069702 2.77709961 0.14282227 C3.76645508 0.19116211 4.75581055 0.23950195 5.77514648 0.28930664 C7.33652344 0.37341797 7.33652344 0.37341797 8.92944336 0.45922852 C10.49662109 0.53753906 10.49662109 0.53753906 12.09545898 0.61743164 C14.68622572 0.74756148 17.27665002 0.8825401 19.86694336 1.02172852 C19.91343795 12.94015722 19.94889921 24.85856409 19.9705677 36.77706528 C19.98097141 42.31226574 19.99506785 47.8474038 20.01782227 53.38256836 C20.03967287 58.73181007 20.05153761 64.08099204 20.05669785 69.43027496 C20.06037177 71.46344187 20.06754559 73.49660578 20.07840347 75.52974701 C20.2405964 107.18079573 20.2405964 107.18079573 10.11694336 117.86938477 C-0.10125994 126.53356964 -13.59461631 125.30669307 -26.13305664 125.02172852 C-26.13305664 118.75172852 -26.13305664 112.48172852 -26.13305664 106.02172852 C-17.94555664 105.52172852 -17.94555664 105.52172852 -15.39404297 105.42602539 C-12.24266995 105.14134175 -9.91220806 104.82669043 -7.65108871 102.4906683 C-4.17447314 97.04269236 -3.41347531 92.8058546 -3.48950195 86.40869141 C-3.47618584 85.01946472 -3.47618584 85.01946472 -3.46260071 83.60217285 C-3.43905349 80.5658712 -3.45007598 77.5307399 -3.46118164 74.49438477 C-3.45059804 72.37827809 -3.43768497 70.2621819 -3.42254639 68.14610291 C-3.38841011 62.59475141 -3.38296227 57.04375172 -3.38446045 51.49230957 C-3.38122766 43.64392973 -3.33862679 35.79564659 -3.30072021 27.94737244 C-3.2806549 23.76956068 -3.27137027 19.59193573 -3.27056885 15.41407776 C-3.26675073 13.51905309 -3.26290695 11.62402847 -3.2590332 9.72900391 C-3.26113297 8.85684738 -3.26323273 7.98469086 -3.26539612 7.08610535 C-3.24248922 0.03302982 -3.24248922 0.03302982 0 0 Z " fill="#C4A84C" transform="translate(272.133056640625,90.978271484375)"/>
<path d="M0 0 C3.45162975 2.53589124 4.73976705 4.1860102 5.3984375 8.3984375 C5.49367797 13.82714448 4.84904952 17.05409377 1.0625 21.25 C-3.87617526 24.35431016 -10.23275417 23.85105463 -15.75 22.625 C-18.97905957 20.59530541 -20.25519907 18.6769093 -21.9375 15.25 C-22.78048558 10.49011173 -22.38573327 7.16306777 -20.25 2.8125 C-15.05159769 -2.94789175 -6.79182119 -3.60150852 0 0 Z " fill="#C3A84D" transform="translate(288.9375,54.75)"/>
<path d="M0 0 C6.6 0 13.2 0 20 0 C20 30.69 20 61.38 20 93 C13.07 93 6.14 93 -1 93 C-1 89.04 -1 85.08 -1 81 C1 85 1 85 1 91 C6.94 91.33 12.88 91.66 19 92 C19 62.3 19 32.6 19 2 C13.06 2 7.12 2 1 2 C0.67 4.97 0.34 7.94 0 11 C-0.33 11 -0.66 11 -1 11 C-1.02688151 9.35425434 -1.04634123 7.70838587 -1.0625 6.0625 C-1.07410156 5.14597656 -1.08570313 4.22945313 -1.09765625 3.28515625 C-1 1 -1 1 0 0 Z " fill="#BEA760" transform="translate(812,91)"/>
<path d="M0 0 C5.94 0 11.88 0 18 0 C18 6.27 18 12.54 18 19 C8.1 19 -1.8 19 -12 19 C-12 18.67 -12 18.34 -12 18 C-2.76 18 6.48 18 16 18 C16 12.72 16 7.44 16 2 C10.72 1.67 5.44 1.34 0 1 C0 0.67 0 0.34 0 0 Z " fill="#BBA95F" transform="translate(711,165)"/>
<path d="M0 0 C20.15261959 -0.738041 20.15261959 -0.738041 28 4 C25.13822943 5.43088528 23.06624227 4.59991697 20 4 C20 3.34 20 2.68 20 2 C18.93458984 2.24943359 18.93458984 2.24943359 17.84765625 2.50390625 C14.06305164 3.16322694 10.44789984 2.97253467 6.62109375 2.83984375 C3.88677714 3.00691824 2.32701174 3.60379295 0 5 C0 3.35 0 1.7 0 0 Z " fill="#BDA95A" transform="translate(770,89)"/>
<path d="M0 0 C0.99 0.495 0.99 0.495 2 1 C1.67 6.28 1.34 11.56 1 17 C4.25520833 16.70703125 7.51041667 16.4140625 10.765625 16.12109375 C13.51871477 16.01801913 15.419982 16.13786527 18 17 C18 17.66 18 18.32 18 19 C12.06 19 6.12 19 0 19 C0 12.73 0 6.46 0 0 Z " fill="#C0A75D" transform="translate(660,92)"/>
<path d="M0 0 C0.33 0.66 0.66 1.32 1 2 C1.66 2.33 2.32 2.66 3 3 C2.34 3 1.68 3 1 3 C1.33 3.99 1.66 4.98 2 6 C-0.68841859 8.25245881 -2.64641875 9.88213958 -6 11 C-6 11.99 -6 12.98 -6 14 C-9.75 15.125 -9.75 15.125 -12 14 C-12 13.34 -12 12.68 -12 12 C-10.55989912 11.06225989 -9.1178544 10.1273087 -7.6640625 9.2109375 C-4.3942305 6.83148229 -1.80698513 3.61397025 0 0 Z " fill="#BBA652" transform="translate(228,151)"/>
<path d="M0 0 C2.4375 0.625 2.4375 0.625 5 2 C5.6875 5.0625 5.6875 5.0625 6 8 C6.66 8.33 7.32 8.66 8 9 C8 9.66 8 10.32 8 11 C8.99 11 9.98 11 11 11 C11.99 12.98 12.98 14.96 14 17 C10.41194006 15.51167917 8.39869503 13.48442067 5.875 10.5625 C5.19179688 9.78003906 4.50859375 8.99757812 3.8046875 8.19140625 C0 3.57142857 0 3.57142857 0 0 Z " fill="#BCA755" transform="translate(311,160)"/>
<path d="M0 0 C0.96550781 0.01353516 1.93101562 0.02707031 2.92578125 0.04101562 C5.28445425 0.07604542 7.64191771 0.12515916 10 0.1875 C10 0.5175 10 0.8475 10 1.1875 C9.03320312 1.23648438 8.06640625 1.28546875 7.0703125 1.3359375 C0.23240538 1.72860939 -6.2808605 2.20132665 -12.94921875 3.8828125 C-15.26208275 4.22643801 -16.76883599 3.80618458 -19 3.1875 C-12.45983027 0.2490511 -7.11821985 -0.19145557 0 0 Z " fill="#BBA75B" transform="translate(885,88.8125)"/>
<path d="M0 0 C5.0022542 4.08078632 6.07934219 7.69280693 7 14 C6.34064453 13.27876953 6.34064453 13.27876953 5.66796875 12.54296875 C3.54616701 10.58017791 1.81866616 10.38090083 -1 10 C-0.34 9.67 0.32 9.34 1 9 C0.67 8.01 0.34 7.02 0 6 C0.66 5.34 1.32 4.68 2 4 C1.34 2.68 0.68 1.36 0 0 Z " fill="#BEA654" transform="translate(915,100)"/>
<path d="M0 0 C1.65 0.33 3.3 0.66 5 1 C5 1.66 5 2.32 5 3 C4.34 3 3.68 3 3 3 C3.7195905 5.99383194 3.7195905 5.99383194 5.625 7.4375 C6.07875 7.953125 6.5325 8.46875 7 9 C6.6875 11.1875 6.6875 11.1875 6 13 C5.9175 12.21625 5.835 11.4325 5.75 10.625 C5.28389075 7.87359896 5.28389075 7.87359896 3.0625 6.8125 C2.381875 6.544375 1.70125 6.27625 1 6 C0.34 5.34 -0.32 4.68 -1 4 C-0.625 1.875 -0.625 1.875 0 0 Z " fill="#C1A657" transform="translate(120,82)"/>
<path d="M0 0 C0.66 0 1.32 0 2 0 C3.20577428 4.94367454 2.6290678 8.20862412 1 13 C-0.98 13.33 -2.96 13.66 -5 14 C-4.175 13.175 -3.35 12.35 -2.5 11.5 C-0.2385682 8.83724368 0.34355513 7.11559679 0.3125 3.625 C0.209375 2.42875 0.10625 1.2325 0 0 Z " fill="#BBA85A" transform="translate(901,154)"/>
<path d="M0 0 C0 0.99 0 1.98 0 3 C-0.99 3.495 -0.99 3.495 -2 4 C-2.99 5.485 -2.99 5.485 -4 7 C-4.33 6.34 -4.66 5.68 -5 5 C-5.66 5.165 -6.32 5.33 -7 5.5 C-10.73099794 6.12183299 -14.21873378 6.06408926 -18 6 C-18 5.67 -18 5.34 -18 5 C-16.80503906 4.83564453 -16.80503906 4.83564453 -15.5859375 4.66796875 C-9.8527586 3.81008432 -4.97419107 3.03978343 0 0 Z " fill="#BAA558" transform="translate(369,161)"/>
<path d="M0 0 C4.96916636 0.51405169 9.29026351 1.23384882 14 3 C14 3.33 14 3.66 14 4 C11.36 4.33 8.72 4.66 6 5 C5.67 4.34 5.34 3.68 5 3 C2.47266765 2.34444881 2.47266765 2.34444881 0 2 C0 1.34 0 0.68 0 0 Z " fill="#BCA657" transform="translate(894,129)"/>
<path d="M0 0 C1.32 0.33 2.64 0.66 4 1 C3.29875 1.680625 2.5975 2.36125 1.875 3.0625 C-0.46053942 5.97597808 -0.46053942 5.97597808 0.75 9.8125 C1.1625 10.864375 1.575 11.91625 2 13 C-0.475 12.01 -0.475 12.01 -3 11 C-2.69078116 9.54096742 -2.37751201 8.08279278 -2.0625 6.625 C-1.88847656 5.81289062 -1.71445312 5.00078125 -1.53515625 4.1640625 C-1 2 -1 2 0 0 Z " fill="#BAA756" transform="translate(471,122)"/>
<path d="M0 0 C0.66 0.33 1.32 0.66 2 1 C1.01 1.33 0.02 1.66 -1 2 C-1.33 2.99 -1.66 3.98 -2 5 C-3.48035688 6.28726685 -4.96488598 7.57151986 -6.5 8.79296875 C-8.11655494 10.0937903 -9.57342089 11.4941665 -11 13 C-11 10 -11 10 -9.1015625 7.7734375 C-7.87566406 6.58621094 -7.87566406 6.58621094 -6.625 5.375 C-5.40683594 4.18003906 -5.40683594 4.18003906 -4.1640625 2.9609375 C-2 1 -2 1 0 0 Z " fill="#BCA75E" transform="translate(756,95)"/>
<path d="M0 0 C0.33 0 0.66 0 1 0 C1.06058594 1.20398438 1.12117188 2.40796875 1.18359375 3.6484375 C1.26799732 5.22397077 1.35264541 6.79949096 1.4375 8.375 C1.47681641 9.1690625 1.51613281 9.963125 1.55664062 10.78125 C1.68893404 15.02601221 1.68893404 15.02601221 3 19 C1.35 19.66 -0.3 20.32 -2 21 C-1.84152588 20.42475586 -1.68305176 19.84951172 -1.51977539 19.25683594 C-1.02086674 17.09060223 -0.80111676 15.10677317 -0.68359375 12.890625 C-0.62075195 11.75947266 -0.62075195 11.75947266 -0.55664062 10.60546875 C-0.51732422 9.82816406 -0.47800781 9.05085937 -0.4375 8.25 C-0.39431641 7.45722656 -0.35113281 6.66445312 -0.30664062 5.84765625 C-0.20097009 3.89862185 -0.10002034 1.94933252 0 0 Z " fill="#BDA757" transform="translate(380,130)"/>
<path d="M0 0 C0.33 0.66 0.66 1.32 1 2 C-0.25 5.0625 -0.25 5.0625 -2 8 C-2.99 8.33 -3.98 8.66 -5 9 C-5.73323796 11.01508358 -5.73323796 11.01508358 -6 13 C-6.66 13 -7.32 13 -8 13 C-6.40956621 7.91061189 -3.2553049 4.12543357 0 0 Z " fill="#B8A359" transform="translate(169,103)"/>
<path d="M0 0 C-0.33 1.98 -0.66 3.96 -1 6 C0.32 6.33 1.64 6.66 3 7 C2.34 8.32 1.68 9.64 1 11 C0.16121545 9.71186658 -0.67086783 8.41936744 -1.5 7.125 C-1.9640625 6.40570313 -2.428125 5.68640625 -2.90625 4.9453125 C-4 3 -4 3 -4 1 C-2 0 -2 0 0 0 Z " fill="#BEA857" transform="translate(852,163)"/>
<path d="M0 0 C0.66 0.99 1.32 1.98 2 3 C1.34 4.32 0.68 5.64 0 7 C-0.66 7 -1.32 7 -2 7 C-2.66 8.32 -3.32 9.64 -4 11 C-4.99 11 -5.98 11 -7 11 C-6.57847656 10.37351563 -6.15695312 9.74703125 -5.72265625 9.1015625 C-4.90087891 7.87566406 -4.90087891 7.87566406 -4.0625 6.625 C-3.24458984 5.40683594 -3.24458984 5.40683594 -2.41015625 4.1640625 C-0.98906121 2.07280816 -0.98906121 2.07280816 0 0 Z " fill="#BBA756" transform="translate(808,148)"/>
<path d="M0 0 C2.9512645 1.47563225 3.06923915 3.50079352 4.125 6.5625 C4.47820313 7.57441406 4.83140625 8.58632812 5.1953125 9.62890625 C5.46085938 10.41136719 5.72640625 11.19382813 6 12 C5.34 12 4.68 12 4 12 C4 11.34 4 10.68 4 10 C3.01 9.67 2.02 9.34 1 9 C0.67 6.03 0.34 3.06 0 0 Z " fill="#BCA656" transform="translate(642,136)"/>
<path d="M0 0 C2.96175123 0.61277612 4.38058783 1.25372522 7 3 C7 3.66 7 4.32 7 5 C4.69 4.67 2.38 4.34 0 4 C0 2.68 0 1.36 0 0 Z " fill="#BCA653" transform="translate(380,97)"/>
<path d="M0 0 C3.93306853 0.54880026 7.41353557 1.25800299 11 3 C11.33 3.66 11.66 4.32 12 5 C10.55989519 4.74337755 9.1229313 4.46909179 7.6875 4.1875 C6.88699219 4.03667969 6.08648438 3.88585937 5.26171875 3.73046875 C2.76554413 2.92427764 1.67577894 1.97947998 0 0 Z " fill="#BFA55C" transform="translate(758,181)"/>
<path d="M0 0 C1.98 0 3.96 0 6 0 C4.02 2.31 2.04 4.62 0 7 C-1 3 -1 3 0 0 Z " fill="#BBA956" transform="translate(915,173)"/>
<path d="M0 0 C1.32 0.33 2.64 0.66 4 1 C2 4 0 7 -2 10 C-3.125 6.25 -3.125 6.25 -2 4 C-1.34 4 -0.68 4 0 4 C0 2.68 0 1.36 0 0 Z " fill="#BBA755" transform="translate(182,118)"/>
<path d="M0 0 C1.9451 2.91765 2.45276317 4.62537285 3 8 C2.01 8.33 1.02 8.66 0 9 C-0.99 8.01 -1.98 7.02 -3 6 C-2.01 5.67 -1.02 5.34 0 5 C0 3.35 0 1.7 0 0 Z " fill="#C0A657" transform="translate(148,86)"/>
<path d="M0 0 C0.33 0.66 0.66 1.32 1 2 C1.99 2.33 2.98 2.66 4 3 C4 4.65 4 6.3 4 8 C3.34 8 2.68 8 2 8 C0.61061923 6.03852126 -0.7260411 4.03833424 -2 2 C-1.34 2 -0.68 2 0 2 C0 1.34 0 0.68 0 0 Z " fill="#C4AC5E" transform="translate(748,169)"/>
<path d="M0 0 C0.66 0 1.32 0 2 0 C2.66 1.98 3.32 3.96 4 6 C2.35 6 0.7 6 -1 6 C-0.67 4.02 -0.34 2.04 0 0 Z " fill="#C1A655" transform="translate(627,102)"/>
<path d="M0 0 C1.32 0 2.64 0 4 0 C4 0.66 4 1.32 4 2 C5.98 2 7.96 2 10 2 C10 2.33 10 2.66 10 3 C7.03 3 4.06 3 1 3 C0.67 4.32 0.34 5.64 0 7 C0 4.69 0 2.38 0 0 Z " fill="#CFB743" transform="translate(270,91)"/>
<path d="M0 0 C2.52349243 3.12432397 4.27256146 6.38060496 6 10 C3.5625 9.25 3.5625 9.25 1 8 C-0.21156116 5.20408963 0 3.12576931 0 0 Z " fill="#BCA955" transform="translate(329,148)"/>
<path d="M0 0 C3.875 1.875 3.875 1.875 5 3 C5.14115161 5.67058851 5.04247107 8.32432238 5 11 C3.13448574 7.41247258 1.57464072 3.72187807 0 0 Z " fill="#BAA557" transform="translate(608,111)"/>
<path d="M0 0 C7.42857143 -0.28571429 7.42857143 -0.28571429 11 2 C10.67 2.99 10.34 3.98 10 5 C5.05 3.02 5.05 3.02 0 1 C0 0.67 0 0.34 0 0 Z " fill="#BBA754" transform="translate(888,107)"/>
<path d="M0 0 C2.31 0.66 4.62 1.32 7 2 C7 2.66 7 3.32 7 4 C5.02 4.33 3.04 4.66 1 5 C0.67 3.35 0.34 1.7 0 0 Z " fill="#BEA652" transform="translate(771,163)"/>
<path d="M0 0 C0.99 1.485 0.99 1.485 2 3 C2.87072072 4.23220174 3.74584102 5.46130459 4.625 6.6875 C5.07101562 7.31011719 5.51703125 7.93273437 5.9765625 8.57421875 C6.31429687 9.04472656 6.65203125 9.51523438 7 10 C3.34683329 8.75023244 2.21934164 8.32901247 0 5 C-0.125 2.3125 -0.125 2.3125 0 0 Z " fill="#B9A55A" transform="translate(868,157)"/>
<path d="M0 0 C0.33 1.32 0.66 2.64 1 4 C2.32 4.33 3.64 4.66 5 5 C4.01 5.495 4.01 5.495 3 6 C2.34 5.67 1.68 5.34 1 5 C1 5.99 1 6.98 1 8 C0.01 8 -0.98 8 -2 8 C-1.34 5.36 -0.68 2.72 0 0 Z " fill="#BCA552" transform="translate(571,106)"/>
<path d="M0 0 C0.99 0 1.98 0 3 0 C2.54917531 1.46067199 2.08906463 2.91848032 1.625 4.375 C1.36976563 5.18710938 1.11453125 5.99921875 0.8515625 6.8359375 C0 9 0 9 -2 11 C-1.34 7.37 -0.68 3.74 0 0 Z " fill="#BBA657" transform="translate(595,101)"/>
<path d="M0 0 C-0.5 1.875 -0.5 1.875 -2 4 C-4.65177645 4.98494554 -7.20547307 5.45912382 -10 6 C-7.61707123 2.42560684 -4.48712563 0 0 0 Z " fill="#BAA457" transform="translate(185,93)"/>
<path d="M0 0 C2.875 -0.125 2.875 -0.125 6 0 C6.66 0.66 7.32 1.32 8 2 C5.23735711 2.59732819 2.83967231 3 0 3 C0 2.01 0 1.02 0 0 Z " fill="#C1A759" transform="translate(195,89)"/>
<path d="M0 0 C2.97 1.98 2.97 1.98 6 4 C4 5 2 6 0 7 C0 4.69 0 2.38 0 0 Z " fill="#CDB744" transform="translate(914,135)"/>
<path d="M0 0 C1.5625 1.75 1.5625 1.75 3 4 C2.6875 6.25 2.6875 6.25 2 8 C1.34 7.01 0.68 6.02 0 5 C-0.99 4.34 -1.98 3.68 -3 3 C-2.01 2.01 -1.02 1.02 0 0 Z " fill="#C0AA57" transform="translate(859,96)"/>
<path d="M0 0 C2 2 2 2 2 5 C1.01 5 0.02 5 -1 5 C-1 5.99 -1 6.98 -1 8 C-1.66 8 -2.32 8 -3 8 C-1.125 2.25 -1.125 2.25 0 0 Z " fill="#BEA959" transform="translate(556,144)"/>
</svg>
